<svg xmlns="http://www.w3.org/2000/svg" viewBox="0 0 128 128">
  <path fill="#E34F26" d="M19.569 27l8.087 89.919 36.289 9.682 36.39-9.499L108.431 27H19.569z"/>
  <path fill="#EF652A" d="M64 129.611v-79.625L96.192 112.2l-32.192 17.411z"/>
  <path fill="#EBEBEB" d="M28.103 38.621l2.083 22.734H64V38.621H28.103zM30.649 78.227h-7.895l1.357 14.434L64 107.994v-22.755l-39.847-7.012zM64 61.355H39.2l1.598 16.972H64V61.355z"/>
  <path fill="#FFF" d="M63.962 38.621v22.734h32.668l-.728 8.148-1.924 21.659L63.962 104.206v22.755l39.882-10.832.292-3.483 2.934-32.862.305-3.446-2.236-25.338H63.962zM63.962 61.355v16.972H86.9l-1.257 14.434-21.681 5.846v-22.755l21.681-5.846H63.962z"/>
</svg>